<?xml version="1.0" encoding="utf-8"?>
<!-- Generator: Adobe Illustrator 23.0.1, SVG Export Plug-In . SVG Version: 6.00 Build 0)  -->
<svg version="1.1" id="Layer_1" xmlns="http://www.w3.org/2000/svg" xmlns:xlink="http://www.w3.org/1999/xlink" x="0px" y="0px"
	 viewBox="0 0 805.28 1118.39" style="enable-background:new 0 0 805.28 1118.39;" xml:space="preserve">
<style type="text/css">
	.st0{fill:#FFFFFF;}
</style>
<circle class="st0" cx="60.47" cy="311.19" r="2.7"/>
<circle class="st0" cx="109.47" cy="271.19" r="2.7"/>
<circle class="st0" cx="149.47" cy="311.19" r="2.7"/>
<circle class="st0" cx="251.93" cy="207.64" r="2.7"/>
<circle class="st0" cx="109.47" cy="346.58" r="2.7"/>
<circle class="st0" cx="38.9" cy="392.63" r="2.7"/>
<circle class="st0" cx="302.09" cy="261.57" r="2.7"/>
<circle class="st0" cx="194.08" cy="246.47" r="2.7"/>
<circle class="st0" cx="265.96" cy="323.6" r="2.7"/>
<circle class="st0" cx="199.47" cy="371.19" r="2.7"/>
<circle class="st0" cx="216.88" cy="341.19" r="2.7"/>
<circle class="st0" cx="318.27" cy="413.12" r="2.7"/>
<circle class="st0" cx="16.37" cy="43.21" r="2.7"/>
<circle class="st0" cx="78.37" cy="55.73" r="2.7"/>
<circle class="st0" cx="72.81" cy="112.03" r="2.7"/>
<circle class="st0" cx="217.85" cy="125.58" r="2.7"/>
<circle class="st0" cx="191.38" cy="35.39" r="2.7"/>
<circle class="st0" cx="20.08" cy="103.54" r="2.7"/>
<circle class="st0" cx="138.59" cy="38.08" r="2.7"/>
<circle class="st0" cx="207.96" cy="198.57" r="2.7"/>
<circle class="st0" cx="151.14" cy="105.47" r="2.7"/>
<circle class="st0" cx="137.09" cy="209.96" r="2.7"/>
<circle class="st0" cx="58.13" cy="188.74" r="2.7"/>
<circle class="st0" cx="92.36" cy="183.17" r="2.7"/>
<circle class="st0" cx="101.04" cy="307.18" r="2.7"/>
<circle class="st0" cx="152.34" cy="646.66" r="2.7"/>
<circle class="st0" cx="192.34" cy="606.66" r="2.7"/>
<circle class="st0" cx="88.79" cy="504.2" r="2.7"/>
<circle class="st0" cx="227.73" cy="646.66" r="2.7"/>
<circle class="st0" cx="155.04" cy="513.57" r="2.7"/>
<circle class="st0" cx="127.62" cy="562.06" r="2.7"/>
<circle class="st0" cx="204.74" cy="490.18" r="2.7"/>
<circle class="st0" cx="252.34" cy="556.66" r="2.7"/>
<circle class="st0" cx="222.34" cy="539.26" r="2.7"/>
<circle class="st0" cx="79.71" cy="548.17" r="2.7"/>
<circle class="st0" cx="91.11" cy="619.05" r="2.7"/>
<circle class="st0" cx="64.32" cy="663.77" r="2.7"/>
<circle class="st0" cx="188.33" cy="655.09" r="2.7"/>
<circle class="st0" cx="373.93" cy="208.86" r="2.7"/>
<circle class="st0" cx="423.44" cy="236.22" r="2.7"/>
<circle class="st0" cx="493.21" cy="108.34" r="2.7"/>
<circle class="st0" cx="394.81" cy="281.3" r="2.7"/>
<circle class="st0" cx="556.35" cy="146.27" r="2.7"/>
<circle class="st0" cx="448.38" cy="161.67" r="2.7"/>
<circle class="st0" cx="538.8" cy="215.87" r="2.7"/>
<circle class="st0" cx="488.1" cy="280.02" r="2.7"/>
<circle class="st0" cx="496.52" cy="246.37" r="2.7"/>
<circle class="st0" cx="284.37" cy="10.44" r="2.7"/>
<circle class="st0" cx="294.62" cy="66.07" r="2.7"/>
<circle class="st0" cx="437.74" cy="38.93" r="2.7"/>
<circle class="st0" cx="448.45" cy="111.8" r="2.7"/>
<circle class="st0" cx="368.07" cy="38.08" r="2.7"/>
<circle class="st0" cx="383.51" cy="142.37" r="2.7"/>
<circle class="st0" cx="333.11" cy="129.02" r="2.7"/>
<circle class="st0" cx="375.8" cy="245.78" r="2.7"/>
<circle class="st0" cx="340.72" cy="363.41" r="2.7"/>
<circle class="st0" cx="412.56" cy="310.7" r="2.7"/>
<circle class="st0" cx="462.08" cy="338.05" r="2.7"/>
<circle class="st0" cx="433.44" cy="383.14" r="2.7"/>
<circle class="st0" cx="414.43" cy="347.62" r="2.7"/>
<circle class="st0" cx="335.55" cy="310.7" r="2.7"/>
<circle class="st0" cx="121.68" cy="403.44" r="2.7"/>
<circle class="st0" cx="93.04" cy="448.53" r="2.7"/>
<circle class="st0" cx="186.34" cy="447.25" r="2.7"/>
<circle class="st0" cx="563.78" cy="244.47" r="2.7"/>
<circle class="st0" cx="630.03" cy="253.83" r="2.7"/>
<circle class="st0" cx="679.74" cy="230.45" r="2.7"/>
<circle class="st0" cx="697.33" cy="279.52" r="2.7"/>
<circle class="st0" cx="568.04" cy="188.8" r="2.7"/>
<circle class="st0" cx="661.33" cy="187.51" r="2.7"/>
<circle class="st0" cx="194.75" cy="413.6" r="2.7"/>
<circle class="st0" cx="357.28" cy="536.6" r="2.7"/>
<circle class="st0" cx="339.88" cy="566.6" r="2.7"/>
<circle class="st0" cx="401.72" cy="394.23" r="2.7"/>
<circle class="st0" cx="352.01" cy="417.61" r="2.7"/>
<circle class="st0" cx="513.4" cy="399.3" r="2.7"/>
<circle class="st0" cx="294.62" cy="360.72" r="2.7"/>
<circle class="st0" cx="370.42" cy="460.55" r="2.7"/>
<circle class="st0" cx="362" cy="494.19" r="2.7"/>
<circle class="st0" cx="74.03" cy="413" r="2.7"/>
<circle class="st0" cx="594.99" cy="622.68" r="2.7"/>
<circle class="st0" cx="594.3" cy="559.43" r="2.7"/>
<circle class="st0" cx="650.52" cy="553.13" r="2.7"/>
<circle class="st0" cx="653.22" cy="606.47" r="2.7"/>
<circle class="st0" cx="706.98" cy="402.9" r="2.7"/>
<circle class="st0" cx="732.9" cy="469.84" r="2.7"/>
<circle class="st0" cx="728.61" cy="551.49" r="2.7"/>
<circle class="st0" cx="716.02" cy="519.17" r="2.7"/>
<circle class="st0" cx="835.5" cy="484.82" r="2.7"/>
<circle class="st0" cx="617.17" cy="588.47" r="2.7"/>
<circle class="st0" cx="810.67" cy="436.26" r="2.7"/>
<circle class="st0" cx="766.24" cy="407.41" r="2.7"/>
<circle class="st0" cx="705.27" cy="632.41" r="2.7"/>
<circle class="st0" cx="758.8" cy="581.64" r="2.7"/>
<circle class="st0" cx="860.06" cy="461.26" r="2.7"/>
<circle class="st0" cx="779.79" cy="470.6" r="2.7"/>
<circle class="st0" cx="683.01" cy="675.61" r="2.7"/>
<circle class="st0" cx="461.99" cy="665.82" r="2.7"/>
<circle class="st0" cx="468.35" cy="602.89" r="2.7"/>
<circle class="st0" cx="524.92" cy="602.89" r="2.7"/>
<circle class="st0" cx="524.15" cy="457.22" r="2.7"/>
<circle class="st0" cx="597.75" cy="459.89" r="2.7"/>
<circle class="st0" cx="510.7" cy="525.58" r="2.7"/>
<circle class="st0" cx="616.06" cy="529.29" r="2.7"/>
<circle class="st0" cx="329.88" cy="516.26" r="2.7"/>
<circle class="st0" cx="442.03" cy="423.29" r="2.7"/>
<circle class="st0" cx="506.77" cy="996.76" r="2.7"/>
<circle class="st0" cx="559.08" cy="1086.28" r="2.7"/>
<circle class="st0" cx="635.62" cy="954.46" r="2.7"/>
<circle class="st0" cx="581.53" cy="1036.57" r="2.7"/>
<circle class="st0" cx="653.37" cy="983.86" r="2.7"/>
<circle class="st0" cx="702.89" cy="1011.22" r="2.7"/>
<circle class="st0" cx="674.25" cy="1056.3" r="2.7"/>
<circle class="st0" cx="655.24" cy="1020.78" r="2.7"/>
<circle class="st0" cx="576.36" cy="983.86" r="2.7"/>
<circle class="st0" cx="642.53" cy="1067.39" r="2.7"/>
<circle class="st0" cx="592.82" cy="1090.77" r="2.7"/>
<circle class="st0" cx="535.43" cy="1033.88" r="2.7"/>
<circle class="st0" cx="682.84" cy="1096.45" r="2.7"/>
<circle class="st0" cx="486.64" cy="481.89" r="2.7"/>
<circle class="st0" cx="444.58" cy="540.06" r="2.7"/>
<circle class="st0" cx="373.74" cy="580.89" r="2.7"/>
<circle class="st0" cx="394.01" cy="552.75" r="2.7"/>
<circle class="st0" cx="651.85" cy="491.72" r="2.7"/>
<circle class="st0" cx="682.88" cy="507.22" r="2.7"/>
<circle class="st0" cx="695.03" cy="472.54" r="2.7"/>
<circle class="st0" cx="665.68" cy="454.06" r="2.7"/>
<circle class="st0" cx="487.84" cy="634.3" r="2.7"/>
<circle class="st0" cx="273.39" cy="833.04" r="2.7"/>
<circle class="st0" cx="279.75" cy="770.11" r="2.7"/>
<circle class="st0" cx="336.32" cy="770.11" r="2.7"/>
<circle class="st0" cx="335.55" cy="624.44" r="2.7"/>
<circle class="st0" cx="638.83" cy="111.03" r="2.7"/>
<circle class="st0" cx="652.54" cy="11.68" r="2.7"/>
<circle class="st0" cx="604.71" cy="40.22" r="2.7"/>
<circle class="st0" cx="707.31" cy="15.99" r="2.7"/>
<circle class="st0" cx="715.72" cy="97.32" r="2.7"/>
<circle class="st0" cx="698.28" cy="67.34" r="2.7"/>
<circle class="st0" cx="528.65" cy="18.69" r="2.7"/>
<circle class="st0" cx="544.76" cy="71.64" r="2.7"/>
<circle class="st0" cx="767.34" cy="35.39" r="2.7"/>
<circle class="st0" cx="786.84" cy="149.32" r="2.7"/>
<circle class="st0" cx="796.09" cy="100.64" r="2.7"/>
<circle class="st0" cx="784.14" cy="253.83" r="2.7"/>
<circle class="st0" cx="754.43" cy="197.42" r="2.7"/>
<circle class="st0" cx="409.15" cy="627.11" r="2.7"/>
<circle class="st0" cx="322.1" cy="692.81" r="2.7"/>
<circle class="st0" cx="427.46" cy="696.52" r="2.7"/>
<circle class="st0" cx="141.28" cy="683.49" r="2.7"/>
<circle class="st0" cx="298.04" cy="649.11" r="2.7"/>
<circle class="st0" cx="255.98" cy="707.28" r="2.7"/>
<circle class="st0" cx="185.14" cy="748.11" r="2.7"/>
<circle class="st0" cx="205.41" cy="719.97" r="2.7"/>
<circle class="st0" cx="299.24" cy="801.52" r="2.7"/>
<circle class="st0" cx="611.28" cy="371.81" r="2.7"/>
<circle class="st0" cx="665.63" cy="356.15" r="2.7"/>
<circle class="st0" cx="677.27" cy="408.27" r="2.7"/>
<circle class="st0" cx="696.01" cy="198.57" r="2.7"/>
<circle class="st0" cx="630.56" cy="285.8" r="2.7"/>
<circle class="st0" cx="732.82" cy="260.19" r="2.7"/>
<circle class="st0" cx="742.33" cy="341.4" r="2.7"/>
<circle class="st0" cx="724.49" cy="311.66" r="2.7"/>
<circle class="st0" cx="571.04" cy="318.03" r="2.7"/>
<circle class="st0" cx="525.96" cy="344.22" r="2.7"/>
<circle class="st0" cx="1035.45" cy="788.8" r="2.7"/>
<circle class="st0" cx="976.68" cy="833.19" r="2.7"/>
<circle class="st0" cx="1002.73" cy="727.28" r="2.7"/>
<circle class="st0" cx="918.67" cy="790.91" r="2.7"/>
<circle class="st0" cx="878.11" cy="719.92" r="2.7"/>
<circle class="st0" cx="906.18" cy="740.29" r="2.7"/>
<circle class="st0" cx="824.27" cy="833.81" r="2.7"/>
<circle class="st0" cx="1048.97" cy="745.98" r="2.7"/>
<circle class="st0" cx="644.6" cy="688.79" r="2.7"/>
<circle class="st0" cx="601.2" cy="719.91" r="2.7"/>
<circle class="st0" cx="759.21" cy="713.02" r="2.7"/>
<circle class="st0" cx="688.21" cy="753.58" r="2.7"/>
<circle class="st0" cx="708.59" cy="725.51" r="2.7"/>
<circle class="st0" cx="596.83" cy="679.85" r="2.7"/>
<circle class="st0" cx="1021.79" cy="910.03" r="2.7"/>
<circle class="st0" cx="989.52" cy="956.5" r="2.7"/>
<circle class="st0" cx="947.59" cy="923.41" r="2.7"/>
<circle class="st0" cx="1061.13" cy="988.91" r="2.7"/>
<circle class="st0" cx="997.98" cy="1073.33" r="2.7"/>
<circle class="st0" cx="939.35" cy="1016.35" r="2.7"/>
<circle class="st0" cx="971.96" cy="1028.15" r="2.7"/>
<circle class="st0" cx="984.87" cy="908.12" r="2.7"/>
<circle class="st0" cx="871.43" cy="861.23" r="2.7"/>
<circle class="st0" cx="916.54" cy="938.07" r="2.7"/>
<circle class="st0" cx="884.27" cy="984.53" r="2.7"/>
<circle class="st0" cx="842.34" cy="951.45" r="2.7"/>
<circle class="st0" cx="879.62" cy="936.16" r="2.7"/>
<circle class="st0" cx="924.4" cy="861.46" r="2.7"/>
<circle class="st0" cx="803.8" cy="699.09" r="2.7"/>
<circle class="st0" cx="836.41" cy="710.89" r="2.7"/>
<circle class="st0" cx="697.46" cy="860.02" r="2.7"/>
<circle class="st0" cx="669.39" cy="839.65" r="2.7"/>
<circle class="st0" cx="834.55" cy="918.76" r="2.7"/>
<circle class="st0" cx="816.36" cy="866.92" r="2.7"/>
<circle class="st0" cx="818.11" cy="1029.33" r="2.7"/>
<circle class="st0" cx="878.82" cy="815.64" r="2.7"/>
<circle class="st0" cx="771.78" cy="880.85" r="2.7"/>
<circle class="st0" cx="739.16" cy="869.04" r="2.7"/>
<circle class="st0" cx="558.23" cy="950.99" r="2.7"/>
<circle class="st0" cx="620.18" cy="963.74" r="2.7"/>
<circle class="st0" cx="614.41" cy="1020.02" r="2.7"/>
<circle class="st0" cx="759.4" cy="1034.12" r="2.7"/>
<circle class="st0" cx="692.76" cy="1013.76" r="2.7"/>
<circle class="st0" cx="720.49" cy="834.84" r="2.7"/>
<circle class="st0" cx="801.53" cy="955.89" r="2.7"/>
<circle class="st0" cx="738.68" cy="994.29" r="2.7"/>
<circle class="st0" cx="685.11" cy="946.51" r="2.7"/>
<circle class="st0" cx="651.72" cy="871.87" r="2.7"/>
<circle class="st0" cx="677.65" cy="894.91" r="2.7"/>
<circle class="st0" cx="586.94" cy="979.92" r="2.7"/>
<circle class="st0" cx="473.08" cy="759.06" r="2.7"/>
<circle class="st0" cx="467.31" cy="815.33" r="2.7"/>
<circle class="st0" cx="612.3" cy="829.44" r="2.7"/>
<circle class="st0" cx="602.13" cy="902.38" r="2.7"/>
<circle class="st0" cx="545.66" cy="809.08" r="2.7"/>
<circle class="st0" cx="531.22" cy="913.51" r="2.7"/>
<circle class="st0" cx="591.58" cy="789.6" r="2.7"/>
<circle class="st0" cx="538.01" cy="741.83" r="2.7"/>
<circle class="st0" cx="504.62" cy="667.19" r="2.7"/>
<circle class="st0" cx="530.55" cy="690.22" r="2.7"/>
<circle class="st0" cx="871.61" cy="1047.45" r="2.7"/>
<circle class="st0" cx="129.36" cy="784.89" r="2.7"/>
<circle class="st0" cx="70.59" cy="829.28" r="2.7"/>
<circle class="st0" cx="96.64" cy="723.37" r="2.7"/>
<circle class="st0" cx="12.58" cy="787" r="2.7"/>
<circle class="st0" cx="-27.98" cy="716" r="2.7"/>
<circle class="st0" cx="0.09" cy="736.38" r="2.7"/>
<circle class="st0" cx="-81.82" cy="829.9" r="2.7"/>
<circle class="st0" cx="142.88" cy="742.07" r="2.7"/>
<circle class="st0" cx="-261.49" cy="684.87" r="2.7"/>
<circle class="st0" cx="-304.9" cy="716" r="2.7"/>
<circle class="st0" cx="-146.88" cy="709.1" r="2.7"/>
<circle class="st0" cx="-217.88" cy="749.66" r="2.7"/>
<circle class="st0" cx="-197.5" cy="721.6" r="2.7"/>
<circle class="st0" cx="-309.26" cy="675.94" r="2.7"/>
<circle class="st0" cx="115.7" cy="906.12" r="2.7"/>
<circle class="st0" cx="83.43" cy="952.58" r="2.7"/>
<circle class="st0" cx="41.5" cy="919.5" r="2.7"/>
<circle class="st0" cx="155.04" cy="985" r="2.7"/>
<circle class="st0" cx="149.47" cy="1061.99" r="2.7"/>
<circle class="st0" cx="33.25" cy="1012.44" r="2.7"/>
<circle class="st0" cx="65.86" cy="1024.24" r="2.7"/>
<circle class="st0" cx="78.78" cy="904.21" r="2.7"/>
<circle class="st0" cx="-34.66" cy="857.31" r="2.7"/>
<circle class="st0" cx="10.45" cy="934.16" r="2.7"/>
<circle class="st0" cx="-21.82" cy="980.62" r="2.7"/>
<circle class="st0" cx="-63.75" cy="947.53" r="2.7"/>
<circle class="st0" cx="-26.47" cy="932.25" r="2.7"/>
<circle class="st0" cx="18.31" cy="857.55" r="2.7"/>
<circle class="st0" cx="-102.3" cy="695.18" r="2.7"/>
<circle class="st0" cx="-69.68" cy="706.98" r="2.7"/>
<circle class="st0" cx="-208.63" cy="856.11" r="2.7"/>
<circle class="st0" cx="-236.7" cy="835.73" r="2.7"/>
<circle class="st0" cx="-71.54" cy="914.85" r="2.7"/>
<circle class="st0" cx="-89.73" cy="863.01" r="2.7"/>
<circle class="st0" cx="-87.98" cy="1025.42" r="2.7"/>
<circle class="st0" cx="-27.27" cy="811.72" r="2.7"/>
<circle class="st0" cx="-134.32" cy="876.94" r="2.7"/>
<circle class="st0" cx="-166.93" cy="865.13" r="2.7"/>
<circle class="st0" cx="-347.87" cy="947.08" r="2.7"/>
<circle class="st0" cx="-285.91" cy="959.83" r="2.7"/>
<circle class="st0" cx="-291.69" cy="1016.1" r="2.7"/>
<circle class="st0" cx="-146.7" cy="1030.21" r="2.7"/>
<circle class="st0" cx="-213.33" cy="1009.85" r="2.7"/>
<circle class="st0" cx="-185.61" cy="830.93" r="2.7"/>
<circle class="st0" cx="-104.56" cy="951.98" r="2.7"/>
<circle class="st0" cx="-167.42" cy="990.37" r="2.7"/>
<circle class="st0" cx="-220.99" cy="942.6" r="2.7"/>
<circle class="st0" cx="-254.37" cy="867.96" r="2.7"/>
<circle class="st0" cx="-228.44" cy="891" r="2.7"/>
<circle class="st0" cx="-319.15" cy="976.01" r="2.7"/>
<circle class="st0" cx="-433.01" cy="755.15" r="2.7"/>
<circle class="st0" cx="-438.78" cy="811.42" r="2.7"/>
<circle class="st0" cx="-293.79" cy="825.52" r="2.7"/>
<circle class="st0" cx="-303.96" cy="898.47" r="2.7"/>
<circle class="st0" cx="-360.43" cy="805.16" r="2.7"/>
<circle class="st0" cx="-374.88" cy="909.59" r="2.7"/>
<circle class="st0" cx="-314.51" cy="785.69" r="2.7"/>
<circle class="st0" cx="-368.08" cy="737.91" r="2.7"/>
<circle class="st0" cx="-401.47" cy="663.28" r="2.7"/>
<circle class="st0" cx="-375.54" cy="686.31" r="2.7"/>
<circle class="st0" cx="-34.48" cy="1043.54" r="2.7"/>
<circle class="st0" cx="226.77" cy="885.66" r="2.7"/>
<circle class="st0" cx="247.56" cy="956.32" r="2.7"/>
<circle class="st0" cx="157.66" cy="894.57" r="2.7"/>
<circle class="st0" cx="187.54" cy="995.68" r="2.7"/>
<circle class="st0" cx="106.8" cy="1008.57" r="2.7"/>
<circle class="st0" cx="135.77" cy="989.5" r="2.7"/>
<circle class="st0" cx="194.37" cy="1099.14" r="2.7"/>
<circle class="st0" cx="191.48" cy="857.91" r="2.7"/>
<circle class="st0" cx="-4.74" cy="1216.08" r="2.7"/>
<circle class="st0" cx="9.07" cy="1267.67" r="2.7"/>
<circle class="st0" cx="58.38" cy="1117.39" r="2.7"/>
<circle class="st0" cx="71.28" cy="1198.13" r="2.7"/>
<circle class="st0" cx="52.21" cy="1169.16" r="2.7"/>
<circle class="st0" cx="-29.95" cy="1257.62" r="2.7"/>
<circle class="st0" cx="335.38" cy="941.23" r="2.7"/>
<circle class="st0" cx="367.47" cy="987.82" r="2.7"/>
<circle class="st0" cx="321.72" cy="1015.37" r="2.7"/>
<circle class="st0" cx="423.07" cy="932.26" r="2.7"/>
<circle class="st0" cx="479.77" cy="1021.13" r="2.7"/>
<circle class="st0" cx="405.76" cy="1055.89" r="2.7"/>
<circle class="st0" cx="428.32" cy="1029.54" r="2.7"/>
<circle class="st0" cx="320.57" cy="975.1" r="2.7"/>
<circle class="st0" cx="236.66" cy="1064.69" r="2.7"/>
<circle class="st0" cx="324.47" cy="1049.6" r="2.7"/>
<circle class="st0" cx="356.56" cy="1096.19" r="2.7"/>
<circle class="st0" cx="310.81" cy="1123.75" r="2.7"/>
<circle class="st0" cx="309.66" cy="1083.47" r="2.7"/>
<circle class="st0" cx="255.57" cy="1015.21" r="2.7"/>
<circle class="st0" cx="61.08" cy="1070.76" r="2.7"/>
<circle class="st0" cx="83.64" cy="1044.41" r="2.7"/>
<circle class="st0" cx="174.13" cy="1227.05" r="2.7"/>
<circle class="st0" cx="145.16" cy="1246.12" r="2.7"/>
<circle class="st0" cx="277.47" cy="1119.5" r="2.7"/>
<circle class="st0" cx="222.55" cy="1118.23" r="2.7"/>
<circle class="st0" cx="375.13" cy="1173.9" r="2.7"/>
<circle class="st0" cx="196.61" cy="1041.69" r="2.7"/>
<circle class="st0" cx="219.85" cy="1164.86" r="2.7"/>
<circle class="st0" cx="197.29" cy="1191.21" r="2.7"/>
<circle class="st0" cx="210.12" cy="1389.42" r="2.7"/>
<circle class="st0" cx="243.91" cy="1335.96" r="2.7"/>
<circle class="st0" cx="294.53" cy="1361.22" r="2.7"/>
<circle class="st0" cx="358.89" cy="1230.53" r="2.7"/>
<circle class="st0" cx="316.32" cy="1285.7" r="2.7"/>
<circle class="st0" cx="158.7" cy="1196.61" r="2.7"/>
<circle class="st0" cx="300.56" cy="1163.5" r="2.7"/>
<circle class="st0" cx="314.31" cy="1235.86" r="2.7"/>
<circle class="st0" cx="250.7" cy="1269.13" r="2.7"/>
<circle class="st0" cx="169.08" cy="1274.02" r="2.7"/>
<circle class="st0" cx="199.79" cy="1257.89" r="2.7"/>
<circle class="st0" cx="247.32" cy="1372.76" r="2.7"/>
<circle class="st0" cx="0.49" cy="1401.36" r="2.7"/>
<circle class="st0" cx="51.1" cy="1426.62" r="2.7"/>
<circle class="st0" cx="115.46" cy="1295.93" r="2.7"/>
<circle class="st0" cx="180.13" cy="1331.19" r="2.7"/>
<circle class="st0" cx="72.9" cy="1351.1" r="2.7"/>
<circle class="st0" cx="165.51" cy="1401.47" r="2.7"/>
<circle class="st0" cx="70.88" cy="1301.26" r="2.7"/>
<circle class="st0" cx="7.27" cy="1334.53" r="2.7"/>
<circle class="st0" cx="-74.34" cy="1339.43" r="2.7"/>
<circle class="st0" cx="-43.64" cy="1323.3" r="2.7"/>
<circle class="st0" cx="410.96" cy="1130.24" r="2.7"/>
<circle class="st0" cx="638.7" cy="396.6" r="2.7"/>
<circle class="st0" cx="321.54" cy="807.74" r="2.7"/>
<circle class="st0" cx="347.46" cy="874.68" r="2.7"/>
<circle class="st0" cx="330.58" cy="924.01" r="2.7"/>
<circle class="st0" cx="450.06" cy="889.66" r="2.7"/>
<circle class="st0" cx="425.23" cy="841.09" r="2.7"/>
<circle class="st0" cx="380.81" cy="812.24" r="2.7"/>
<circle class="st0" cx="394.35" cy="875.44" r="2.7"/>
<circle class="st0" cx="266.42" cy="896.55" r="2.7"/>
<circle class="st0" cx="297.44" cy="912.06" r="2.7"/>
<circle class="st0" cx="309.59" cy="877.37" r="2.7"/>
<circle class="st0" cx="280.24" cy="858.89" r="2.7"/>
<circle class="st0" cx="291.83" cy="813.11" r="2.7"/>
<circle class="st0" cx="253.26" cy="801.43" r="2.7"/>
</svg>
